<?xml version="1.0" encoding="UTF-8" standalone="no"?>
<svg
   xmlns:dc="http://purl.org/dc/elements/1.1/"
   xmlns:cc="http://creativecommons.org/ns#"
   xmlns:rdf="http://www.w3.org/1999/02/22-rdf-syntax-ns#"
   xmlns:svg="http://www.w3.org/2000/svg"
   xmlns="http://www.w3.org/2000/svg"
   xmlns:xlink="http://www.w3.org/1999/xlink"
   width="116.00295mm"
   height="19.765381mm"
   viewBox="0 0 116.00295 19.765381"
   version="1.1"
   id="svg1639">
  <defs
     id="defs1633">
    <linearGradient
       id="linearGradient971">
      <stop
         id="stop967"
         offset="0"
         style="stop-color:#ffcc00;stop-opacity:1;" />
      <stop
         id="stop969"
         offset="1"
         style="stop-color:#fff6d5;stop-opacity:1" />
    </linearGradient>
    <rect
       id="rect924"
       height="18.549179"
       width="37.009258"
       y="126.71174"
       x="111.85614" />
    <rect
       id="rect918"
       height="18.804316"
       width="32.88393"
       y="127.91512"
       x="114.57967" />
    <rect
       x="78.256027"
       y="129.37485"
       width="6.4405475"
       height="24.864424"
       id="rect2361" />
    <rect
       id="rect1188"
       height="13.718561"
       width="30.842531"
       y="128.56631"
       x="65.507263" />
    <rect
       id="rect1602"
       height="13.718561"
       width="30.842531"
       y="128.56631"
       x="65.507263" />
    <linearGradient
       y2="136.54506"
       x2="113.2394"
       y1="136.54506"
       x1="103.89184"
       gradientUnits="userSpaceOnUse"
       id="linearGradient975"
       xlink:href="#linearGradient971" />
  </defs>
  <metadata
     id="metadata1636">
    <rdf:RDF>
      <cc:Work
         rdf:about="">
        <dc:format>image/svg+xml</dc:format>
        <dc:type
           rdf:resource="http://purl.org/dc/dcmitype/StillImage" />
        <dc:title></dc:title>
      </cc:Work>
    </rdf:RDF>
  </metadata>
  <g
     id="layer1"
     transform="translate(-42.008242,-126.66237)">
    <g
       id="g2357">
      <path
         style="mix-blend-mode:normal;fill:#ffcc00;fill-opacity:1;stroke:#000000;stroke-width:0.203;stroke-linecap:butt;stroke-linejoin:miter;stroke-miterlimit:4;stroke-dasharray:none;stroke-opacity:1"
         d="m 103.98154,146.37365 c 1.36099,-2.16042 6.42031,-8.76277 9.04948,-13.03653 l -3.78257,0.7537 c 1.16482,-3.19585 1.74632,-5.11649 2.60769,-7.37908 -3.05565,5.48897 -4.43655,8.14348 -6.49405,11.55258 l 3.29405,-0.71702 z"
         id="path910" />
      <path
         d="m 54.932502,142.14541 q -1.326869,0 -3.11814,-0.57705 v -1.56628 q 1.741514,0.87382 3.101554,0.87382 0.970273,0 1.550778,-0.40394 0.580505,-0.40393 0.580505,-1.0799 0,-0.5853 -0.489284,-0.93977 -0.480989,-0.36271 -1.542483,-0.58529 l -0.638556,-0.13191 q -1.310282,-0.26379 -1.923959,-0.86557 -0.605384,-0.61002 -0.605384,-1.65695 0,-1.32722 0.912222,-2.04441 0.912222,-0.71719 2.595686,-0.71719 1.426384,0 2.761545,0.54407 v 1.48385 q -1.301989,-0.7584 -2.720081,-0.7584 -2.006888,0 -2.006888,1.36018 0,0.44515 0.174152,0.70895 0.174152,0.25555 0.663434,0.4369 0.489283,0.17312 1.44297,0.36272 l 0.613676,0.11542 q 2.305433,0.45339 2.305433,2.4978 0,1.36843 -0.978565,2.15981 -0.978565,0.78314 -2.678615,0.78314 z"
         style="font-style:normal;font-variant:normal;font-weight:normal;font-stretch:normal;font-size:16.9333px;line-height:1.25;font-family:'Hack NF';-inkscape-font-specification:'Hack NF';fill:#4bb3ff;fill-opacity:1;stroke:#000000;stroke-width:0.428043;stroke-opacity:1"
         id="path2483" />
      <path
         d="m 65.153178,142.27341 q -1.708343,0 -2.421535,-0.68422 -0.704899,-0.69246 -0.704899,-2.35766 v -5.04506 h -2.479585 v -1.17884 h 2.479585 v -2.41536 l 1.525899,-0.65948 v 3.07484 h 3.466443 v 1.17884 h -3.466443 v 5.04506 q 0,1.01396 0.389767,1.42614 0.389768,0.40394 1.36004,0.40394 h 1.716636 v 1.2118 z"
         style="font-style:normal;font-variant:normal;font-weight:normal;font-stretch:normal;font-size:16.9333px;line-height:1.25;font-family:'Hack NF';-inkscape-font-specification:'Hack NF';fill:#4bb3ff;fill-opacity:1;stroke:#000000;stroke-width:0.428043;stroke-opacity:1"
         id="path2485" />
      <path
         d="m 71.495607,142.41268 q -1.343455,0 -2.222505,-0.76665 -0.870758,-0.7749 -0.870758,-2.21752 0,-1.19533 0.580505,-1.86305 0.580505,-0.67597 1.517606,-0.94801 0.937101,-0.27204 1.998595,-0.27204 h 2.048354 v -0.23906 q 0,-1.17883 -0.605384,-1.64047 -0.597091,-0.46164 -1.683464,-0.46164 -0.845878,0 -1.658585,0.23082 -0.812707,0.23082 -1.517606,0.64299 v -1.51681 q 0.762949,-0.28028 1.542484,-0.46164 0.779535,-0.18136 1.592242,-0.18136 0.829292,0 1.608828,0.23082 0.787828,0.22257 1.36004,0.74192 0.572212,0.5111 0.762949,1.37668 0.132687,0.61002 0.132687,1.83831 v 1.88778 q 0,0.7749 0.08293,1.71466 0.09122,0.93977 0.406353,1.66521 H 75.03669 q -0.14098,-0.3215 -0.223909,-0.68422 -0.08293,-0.37096 -0.132688,-0.71719 -0.489282,0.8326 -1.36004,1.23654 -0.862464,0.40393 -1.824443,0.40393 z m 0.373181,-1.26951 q 0.945393,0 1.534192,-0.46164 0.597091,-0.46164 0.870757,-1.20356 0.273667,-0.75016 0.273667,-1.6075 v -0.33798 h -1.932253 q -0.646847,0 -1.268817,0.14838 -0.613677,0.14014 -1.02003,0.54408 -0.398061,0.40393 -0.398061,1.17883 0,0.87381 0.53904,1.31073 0.539041,0.42866 1.401505,0.42866 z"
         style="font-style:normal;font-variant:normal;font-weight:normal;font-stretch:normal;font-size:16.9333px;line-height:1.25;font-family:'Hack NF';-inkscape-font-specification:'Hack NF';fill:#4bb3ff;fill-opacity:1;stroke:#000000;stroke-width:0.428043;stroke-opacity:1"
         id="path2487" />
      <path
         d="m 83.340054,142.42325 q -1.708343,0 -2.421535,-0.68422 -0.704899,-0.69246 -0.704899,-2.35766 v -5.04506 h -2.479585 v -1.17884 h 2.479585 v -2.41536 l 1.525899,-0.65948 v 3.07484 h 3.466444 v 1.17884 h -3.466444 v 5.04506 q 0,1.01396 0.389768,1.42614 0.389767,0.40394 1.36004,0.40394 h 1.716636 v 1.2118 z"
         style="font-style:normal;font-variant:normal;font-weight:normal;font-stretch:normal;font-size:16.9333px;line-height:1.25;font-family:'Hack NF';-inkscape-font-specification:'Hack NF';fill:#4bb3ff;fill-opacity:1;stroke:#000000;stroke-width:0.428043;stroke-opacity:1"
         id="path2489" />
      <path
         d="m 88.724005,131.53155 q -0.248788,0 -0.248788,-0.2473 v -1.42614 q 0,-0.24731 0.248788,-0.24731 h 1.194181 q 0.248789,0 0.248789,0.24731 v 1.42614 q 0,0.2473 -0.248789,0.2473 z m 2.786423,10.9722 q -1.368332,0 -2.122988,-0.87382 -0.746364,-0.88206 -0.746364,-2.47308 v -4.76478 h -2.031768 v -1.18708 h 3.557667 v 5.95186 q 0,1.00572 0.381475,1.53331 0.381473,0.52759 1.111251,0.52759 h 1.78298 v 1.286 z"
         style="font-style:normal;font-variant:normal;font-weight:normal;font-stretch:normal;font-size:16.9333px;line-height:1.25;font-family:'Hack NF';-inkscape-font-specification:'Hack NF';fill:#4bb3ff;fill-opacity:1;stroke:#000000;stroke-width:0.428;stroke-miterlimit:4;stroke-dasharray:none;stroke-opacity:1"
         id="path2491" />
      <path
         d="m 99.511026,142.58747 q -1.46785,0 -2.4713,-0.61002 -0.99514,-0.61827 -1.50931,-1.71467 -0.50586,-1.09639 -0.50586,-2.52253 0,-1.43438 0.51416,-2.52253 0.51415,-1.0964 1.5176,-1.70642 1.00344,-0.61827 2.48788,-0.61827 0.771254,0 1.393214,0.18136 0.62197,0.17311 1.26882,0.52759 v 1.591 q -0.58879,-0.51934 -1.18589,-0.76664 -0.5888,-0.24731 -1.343464,-0.24731 -1.11954,0 -1.79127,0.47813 -0.66343,0.47812 -0.96197,1.28599 -0.29026,0.80787 -0.29026,1.7971 0,0.98099 0.29854,1.7971 0.29855,0.80786 0.96199,1.286 0.66343,0.47813 1.77469,0.47813 0.729774,0 1.360034,-0.23907 0.63027,-0.23906 1.1776,-0.75841 v 1.57452 q -1.18589,0.70895 -2.695204,0.70895 z"
         style="font-style:normal;font-variant:normal;font-weight:normal;font-stretch:normal;font-size:16.9333px;line-height:1.25;font-family:'Hack NF';-inkscape-font-specification:'Hack NF';fill:#4bb3ff;fill-opacity:1;stroke:#000000;stroke-width:0.428043;stroke-opacity:1"
         id="path2493" />
      <g
         id="g914"
         style="stroke-width:0.428;stroke-miterlimit:4;stroke-dasharray:none">
        <path
           id="path2497"
           style="font-style:normal;font-weight:normal;font-size:16.9333px;line-height:1.25;font-family:sans-serif;fill:#87decd;fill-opacity:1;stroke:#000000;stroke-width:0.428;stroke-miterlimit:4;stroke-dasharray:none;stroke-opacity:1"
           d="m 123.72314,137.69177 q 0,1.15755 -0.33073,2.08359 -0.32246,0.92604 -0.87643,1.55442 -0.58705,0.65319 -1.28984,0.98392 -0.7028,0.32246 -1.54616,0.32246 -0.78548,0 -1.37252,-0.19017 -0.58705,-0.1819 -1.15755,-0.49609 l -0.0992,0.42994 H 115.5955 V 129.5145 h 1.55443 v 4.59713 q 0.65319,-0.53743 1.38906,-0.87643 0.73587,-0.34727 1.65364,-0.34727 1.6371,0 2.57968,1.25677 0.95085,1.25677 0.95085,3.54707 z m -1.60404,0.0413 q 0,-1.65365 -0.5457,-2.50527 -0.5457,-0.8599 -1.76113,-0.8599 -0.67799,0 -1.37252,0.29766 -0.69453,0.28939 -1.28984,0.75241 v 5.29165 q 0.66145,0.29766 1.13274,0.41341 0.47956,0.11576 1.08314,0.11576 1.28984,0 2.01744,-0.84336 0.73587,-0.85162 0.73587,-2.66236 z" />
        <path
           id="path2499"
           style="font-style:normal;font-weight:normal;font-size:16.9333px;line-height:1.25;font-family:sans-serif;fill:#87decd;fill-opacity:1;stroke:#000000;stroke-width:0.428;stroke-miterlimit:4;stroke-dasharray:none;stroke-opacity:1"
           d="m 126.98169,142.51347 h -1.55442 v -12.86534 h 1.55442 z" />
        <path
           id="path2501"
           style="font-style:normal;font-weight:normal;font-size:16.9333px;line-height:1.25;font-family:sans-serif;fill:#87decd;fill-opacity:1;stroke:#000000;stroke-width:0.428;stroke-miterlimit:4;stroke-dasharray:none;stroke-opacity:1"
           d="m 137.34398,137.63255 q 0,2.25722 -1.15755,3.5636 -1.15755,1.30638 -3.10058,1.30638 -1.95956,0 -3.11711,-1.30638 -1.14928,-1.30638 -1.14928,-3.5636 0,-2.25722 1.14928,-3.5636 1.15755,-1.31465 3.11711,-1.31465 1.94303,0 3.10058,1.31465 1.15755,1.30638 1.15755,3.5636 z m -1.60403,0 q 0,-1.7942 -0.7028,-2.66236 -0.7028,-0.87643 -1.9513,-0.87643 -1.26503,0 -1.96783,0.87643 -0.69453,0.86816 -0.69453,2.66236 0,1.73633 0.7028,2.63756 0.70279,0.89297 1.95956,0.89297 1.24023,0 1.94303,-0.8847 0.71107,-0.89297 0.71107,-2.64583 z" />
        <path
           id="path2503"
           style="font-style:normal;font-weight:normal;font-size:16.9333px;line-height:1.25;font-family:sans-serif;fill:#87decd;fill-opacity:1;stroke:#000000;stroke-width:0.428;stroke-miterlimit:4;stroke-dasharray:none;stroke-opacity:1"
           d="m 146.64795,141.26296 q 0,2.34817 -1.0666,3.44784 -1.0666,1.09968 -3.28248,1.09968 -0.73587,0 -1.43867,-0.10749 -0.69453,-0.0992 -1.37252,-0.28939 v -1.58749 h 0.0827 q 0.38034,0.14882 1.20716,0.3638 0.82682,0.22324 1.65364,0.22324 0.79375,0 1.31465,-0.19017 0.5209,-0.19017 0.81028,-0.52917 0.28939,-0.32246 0.41341,-0.77721 0.12403,-0.45475 0.12403,-1.01699 v -0.84336 q -0.7028,0.56224 -1.34772,0.84336 -0.63665,0.27285 -1.62884,0.27285 -1.65364,0 -2.62929,-1.19062 -0.96738,-1.19889 -0.96738,-3.37343 0,-1.19062 0.33073,-2.05052 0.33899,-0.86816 0.91777,-1.49654 0.53743,-0.58705 1.30638,-0.90951 0.76894,-0.33073 1.52962,-0.33073 0.80201,0 1.33945,0.16537 0.5457,0.1571 1.14928,0.48782 l 0.0992,-0.39687 h 1.4552 z m -1.55442,-1.48828 v -5.03534 q -0.62012,-0.28112 -1.15755,-0.39687 -0.52917,-0.12403 -1.05833,-0.12403 -1.28158,0 -2.01745,0.8599 -0.73587,0.85989 -0.73587,2.497 0,1.55442 0.5457,2.35644 0.54571,0.80201 1.81074,0.80201 0.678,0 1.35599,-0.25631 0.68626,-0.26458 1.25677,-0.7028 z" />
      </g>
      <path
         d="m 50.79243,144.83804 h -1.366231 q -1.63037,0 -2.650489,-0.82916 -1.011011,-0.82086 -1.011011,-2.37967 v -1.23544 q 0,-1.40126 -0.755981,-2.18896 -0.755981,-0.79599 -2.313485,-0.79599 h -0.464518 v -1.29348 h 0.464518 q 1.557504,0 2.313485,-0.7877 0.755981,-0.79599 0.755981,-2.19725 v -1.23545 q 0,-1.5588 1.011011,-2.37967 1.020119,-0.82915 2.650489,-0.82915 h 1.366231 v 1.14423 h -1.038336 q -1.238716,0 -1.803425,0.52237 -0.5556,0.52237 -0.5556,1.68319 v 1.45101 q 0,1.15253 -0.701332,1.94022 -0.701332,0.77941 -1.949157,1.23544 v 0.19899 q 1.247825,0.45604 1.949157,1.24374 0.701332,0.7794 0.701332,1.93192 v 1.45102 q 0,1.16082 0.5556,1.68319 0.564709,0.52237 1.803425,0.52237 h 1.038336 z"
         style="font-style:normal;font-weight:normal;font-size:17.7977px;line-height:1.25;font-family:sans-serif;fill:#ffffff;fill-opacity:1;stroke:#000000;stroke-width:0.444945;stroke-opacity:1"
         id="path2506" />
      <path
         d="m 157.78531,137.41061 h -0.47889 q -1.60564,0 -2.38499,0.79599 -0.77933,0.7877 -0.77933,2.18897 v 1.23546 q 0,1.55881 -1.05165,2.37968 -1.04226,0.82916 -2.72302,0.82916 h -1.40846 v -1.14424 h 1.07043 q 1.27699,0 1.84976,-0.52238 0.58218,-0.52236 0.58218,-1.68318 v -1.45103 q 0,-1.15253 0.723,-1.93193 0.72301,-0.78771 2.0094,-1.24374 v -0.199 q -1.28639,-0.45604 -2.0094,-1.23544 -0.723,-0.7877 -0.723,-1.94024 v -1.45102 q 0,-1.16082 -0.58218,-1.6832 -0.57277,-0.52236 -1.84976,-0.52236 h -1.07043 v -1.14424 h 1.40846 q 1.68076,0 2.72302,0.82916 1.05165,0.82087 1.05165,2.37968 v 1.23544 q 0,1.40128 0.77933,2.19727 0.77935,0.78771 2.38499,0.78771 h 0.47889 z"
         style="font-style:normal;font-weight:normal;font-size:18.0707px;line-height:1.25;font-family:sans-serif;fill:#ffffff;fill-opacity:1;stroke:#000000;stroke-width:0.451768;stroke-opacity:1"
         id="path2509" />
      <text
         xml:space="preserve"
         id="text916"
         style="font-style:normal;font-weight:normal;font-size:10.5833px;line-height:1.25;font-family:sans-serif;white-space:pre;shape-inside:url(#rect918);fill:#000000;fill-opacity:1;stroke:none;" />
      <text
         xml:space="preserve"
         id="text922"
         style="font-style:normal;font-weight:normal;font-size:10.5833px;line-height:1.25;font-family:sans-serif;white-space:pre;shape-inside:url(#rect924);fill:#000000;fill-opacity:1;stroke:none;" />
    </g>
    <text
       xml:space="preserve"
       id="text2359"
       style="font-style:normal;font-weight:normal;font-size:10.5833px;line-height:1.25;font-family:sans-serif;white-space:pre;shape-inside:url(#rect2361);fill:#000000;fill-opacity:1;stroke:none;" />
  </g>
</svg>
