<?xml version="1.0" encoding="UTF-8" standalone="no"?>
<svg
   xmlns:dc="http://purl.org/dc/elements/1.1/"
   xmlns:cc="http://creativecommons.org/ns#"
   xmlns:rdf="http://www.w3.org/1999/02/22-rdf-syntax-ns#"
   xmlns:svg="http://www.w3.org/2000/svg"
   xmlns="http://www.w3.org/2000/svg"
   xmlns:sodipodi="http://sodipodi.sourceforge.net/DTD/sodipodi-0.dtd"
   xmlns:inkscape="http://www.inkscape.org/namespaces/inkscape"
   sodipodi:docname="github-inverted.svg"
   inkscape:version="1.0 (4035a4fb49, 2020-05-01)"
   id="svg4118"
   version="1.1"
   viewBox="0 0 11.53086 11.234922"
   height="11.234922mm"
   width="11.53086mm">
  <defs
     id="defs4112" />
  <sodipodi:namedview
     inkscape:document-rotation="0"
     inkscape:window-maximized="1"
     inkscape:window-y="-8"
     inkscape:window-x="-8"
     inkscape:window-height="1052"
     inkscape:window-width="1920"
     showgrid="false"
     inkscape:current-layer="layer1"
     inkscape:document-units="mm"
     inkscape:cy="21.368937"
     inkscape:cx="11.858561"
     inkscape:zoom="19.381717"
     inkscape:pageshadow="2"
     inkscape:pageopacity="0.0"
     borderopacity="1.0"
     bordercolor="#666666"
     pagecolor="#ffffff"
     id="base" />
  <metadata
     id="metadata4115">
    <rdf:RDF>
      <cc:Work
         rdf:about="">
        <dc:format>image/svg+xml</dc:format>
        <dc:type
           rdf:resource="http://purl.org/dc/dcmitype/StillImage" />
        <dc:title></dc:title>
      </cc:Work>
    </rdf:RDF>
  </metadata>
  <g
     transform="translate(-109.89529,-149.26349)"
     id="layer1"
     inkscape:groupmode="layer"
     inkscape:label="Layer 1">
    <path
       id="path3914"
       d="m 115.63532,149.26349 c -3.1748,0 -5.74003,2.56523 -5.74003,5.74003 0,2.53983 1.65089,4.69869 3.93674,5.46064 0.27938,0.0508 0.38098,-0.12699 0.38098,-0.27938 0,-0.12699 0,-0.50796 0,-0.96513 -1.6001,0.35557 -1.93028,-0.76196 -1.93028,-0.76196 -0.25398,-0.66035 -0.63496,-0.83814 -0.63496,-0.83814 -0.53336,-0.35558 0.0508,-0.35558 0.0508,-0.35558 0.58416,0.0508 0.88894,0.58416 0.88894,0.58416 0.50797,0.88895 1.34612,0.63496 1.67629,0.48257 0.0508,-0.38097 0.20319,-0.63496 0.35558,-0.76195 -1.26992,-0.15239 -2.61603,-0.63496 -2.61603,-2.84461 0,-0.63496 0.22859,-1.14293 0.58416,-1.5493 -0.0508,-0.15239 -0.25398,-0.73655 0.0508,-1.5239 0,0 0.48257,-0.15239 1.5747,0.58416 0.45717,-0.12699 0.93974,-0.20319 1.4477,-0.20319 0.48257,0 0.99054,0.0762 1.44771,0.20319 1.09213,-0.73655 1.5747,-0.58416 1.5747,-0.58416 0.30478,0.78735 0.12699,1.37151 0.0508,1.5239 0.38098,0.40637 0.58417,0.91434 0.58417,1.5493 0,2.20965 -1.34612,2.69222 -2.61603,2.84461 0.20318,0.17779 0.38097,0.53337 0.38097,1.06673 0,0.76195 0,1.39691 0,1.5747 0,0.15239 0.1016,0.33018 0.40638,0.27938 2.28585,-0.76195 3.93674,-2.92081 3.93674,-5.46064 0,-3.1748 -2.56523,-5.74003 -5.74003,-5.74003 z"
       class="fil1"
       style="clip-rule:evenodd;fill-rule:evenodd;stroke-width:0.02539835;image-rendering:optimizeQuality;shape-rendering:geometricPrecision;text-rendering:geometricPrecision"
       inkscape:connector-curvature="0" />
    <path
       transform="matrix(0.26458333,0,0,0.26458333,109.89529,149.26349)"
       id="path853"
       d="m 27.769634,42.320996 c -0.249492,-0.113299 -0.45153,-0.360672 -0.530403,-0.64942 -0.03805,-0.139311 -0.05647,-1.294095 -0.05666,-3.553435 -3.09e-4,-3.635839 -0.02131,-3.984479 -0.292226,-4.851275 -0.16961,-0.542675 -0.538876,-1.243997 -0.830572,-1.577449 -0.127189,-0.145397 -0.222683,-0.270419 -0.212208,-0.277829 0.01047,-0.0074 0.355703,-0.0646 0.767173,-0.127097 2.864617,-0.435081 4.869364,-1.316951 6.350039,-2.793325 1.461549,-1.457305 2.269976,-3.323478 2.582455,-5.961341 0.0382,-0.32246 0.06616,-1.091137 0.06474,-1.780028 -0.0029,-1.409917 -0.09095,-2.035136 -0.429033,-3.046323 -0.323661,-0.968042 -0.884148,-1.962298 -1.479455,-2.624422 l -0.241172,-0.26824 0.13456,-0.448678 c 0.221849,-0.73973 0.26333,-1.064389 0.261689,-2.048122 -0.0011,-0.645172 -0.02801,-1.07048 -0.08823,-1.393066 C 33.669924,10.383044 33.475544,9.6408795 33.337911,9.2699057 33.24658,9.0237335 33.230997,9.0097553 32.997304,8.9643873 32.625357,8.8921796 31.701783,9.0399606 30.938867,9.2937586 30.13781,9.5602447 28.74351,10.244125 27.903841,10.782386 l -0.645708,0.413924 -0.61837,-0.152833 c -0.76596,-0.189311 -2.16207,-0.42897 -3.017538,-0.517997 -0.799852,-0.08324 -2.919871,-0.08335 -3.714841,-2.07e-4 -0.861925,0.09016 -2.058353,0.296691 -2.864169,0.494413 L 16.340598,11.192087 15.582936,10.72478 C 14.626785,10.13505 13.461577,9.5683643 12.642337,9.2946517 11.879422,9.0397583 10.957624,8.8919422 10.582652,8.9643682 L 10.336508,9.0119306 10.17217,9.5020832 C 9.890225,10.343003 9.7902968,10.930415 9.7584487,11.934068 c -0.03169,0.998673 0.014315,1.470911 0.2196648,2.254862 0.069421,0.265018 0.1262175,0.514937 0.1262175,0.555375 0,0.04044 -0.1086402,0.206697 -0.2414225,0.369465 -0.5741973,0.703868 -1.2072867,1.859532 -1.4801893,2.70199 -0.3377477,1.042638 -0.4731397,2.130508 -0.4261604,3.424189 0.053548,1.474582 0.2320646,2.628785 0.5770567,3.730976 1.1320184,3.616604 3.7930255,5.608865 8.4328525,6.313566 0.41147,0.06249 0.756698,0.119688 0.767173,0.127097 0.01048,0.0074 -0.08977,0.136469 -0.222763,0.286798 -0.321633,0.363556 -0.719827,1.185534 -0.879785,1.816106 -0.07094,0.279651 -0.12898,0.561327 -0.12898,0.625948 0,0.100854 -0.06393,0.140636 -0.451457,0.280936 -1.373933,0.497414 -2.569295,0.529533 -3.608396,0.09695 C 11.595425,34.165791 10.976924,33.607027 10.292033,32.575775 10.047309,32.207291 9.6807074,31.737773 9.4773622,31.532401 8.5939193,30.640152 7.3659171,30.119642 6.4502681,30.249314 c -0.4698469,0.06654 -0.6497587,0.179333 -0.6700098,0.420057 -0.013557,0.161149 0.016172,0.223648 0.2025616,0.425857 0.1201477,0.130345 0.4175192,0.367012 0.6608263,0.525928 1.0329632,0.674677 1.703118,1.593249 2.4391611,3.343325 0.5655387,1.344673 1.7766947,2.357803 3.2721607,2.737159 1.096849,0.278238 2.43415,0.275617 3.798878,-0.0074 l 0.141887,-0.02943 -3.1e-4,1.874419 c -1.55e-4,1.162237 -0.02109,1.949319 -0.05503,2.071552 -0.07097,0.255572 -0.366774,0.580638 -0.597736,0.656863 -0.355671,0.117381 -0.809293,0.03933 -1.642926,-0.282687 C 10.063308,40.464334 6.6595576,37.845486 4.157373,34.412175 2.5733457,32.238691 1.347623,29.620812 0.69560649,27.018591 0.25842166,25.273771 0.09796188,24.063707 0.05893677,22.217321 0.02731824,20.721361 0.07666149,19.797497 0.25443281,18.557009 1.266642,11.493813 5.8297142,5.2836149 12.294329,2.171089 c 2.733007,-1.31586435 5.911158,-2.08696999 8.722348,-2.11627841 0.725273,-0.0075614 2.538357,0.10546351 3.405271,0.21227945 2.53106,0.31186218 4.819483,0.99429166 7.073662,2.10943326 3.423749,1.6937273 6.294026,4.213612 8.420474,7.3925347 1.87515,2.803245 3.062953,6.026194 3.495463,9.484483 0.128728,1.029291 0.155904,3.395422 0.05156,4.488767 -0.57622,6.037552 -3.481085,11.366048 -8.257797,15.147568 -1.708203,1.352312 -3.709787,2.468844 -5.899377,3.290816 -0.734253,0.275638 -1.153888,0.313962 -1.536295,0.140304 z"
       style="fill:#e7e8eb;fill-opacity:1;stroke-width:0.051595" />
  </g>
</svg>
